<svg xmlns="http://www.w3.org/2000/svg" width="20" height="15" viewBox="0 0 22 14.52">
  <g id="Group_610" data-name="Group 610" transform="translate(-760.242 -430.571)">
    <path id="Exclusion_2" data-name="Exclusion 2" d="M2957.045-3561.7a10.806,10.806,0,0,1-5.688-1.794c-1.41-.914-2.356-1.956-2.356-2.355s.947-1.443,2.356-2.356a10.805,10.805,0,0,1,5.688-1.794,10.793,10.793,0,0,1,5.688,1.8c1.389.9,2.356,1.962,2.356,2.348s-.968,1.444-2.356,2.347A10.794,10.794,0,0,1,2957.045-3561.7Zm-.019-7.974a3.841,3.841,0,0,0-3.8,3.87,3.841,3.841,0,0,0,3.8,3.87,3.841,3.841,0,0,0,3.8-3.87A3.841,3.841,0,0,0,2957.026-3569.675Zm0,6.45a2.56,2.56,0,0,1-2.534-2.58,2.56,2.56,0,0,1,2.534-2.58,2.561,2.561,0,0,1,2.534,2.58A2.561,2.561,0,0,1,2957.026-3563.225Z" transform="translate(-2186 4003.244)" fill="#3A3A3A91"/>
    <rect id="Rectangle_963" data-name="Rectangle 963" width="25" height="1.5" rx="0.75" transform="matrix(0.848, -0.53, 0.53, 0.848, 760.242, 443.819)" fill="#3A3A3A91"/>
  </g>
</svg>
