<svg width="22" height="14.52" xmlns="http://www.w3.org/2000/svg">
  <path fill="#707070" d="m11,11.4095a10.806,10.806 0 0 1 -5.688,-1.794c-1.41,-0.914 -2.356,-1.956 -2.356,-2.355s0.947,-1.443 2.356,-2.356a10.805,10.805 0 0 1 5.688,-1.794a10.793,10.793 0 0 1 5.688,1.8c1.389,0.9 2.356,1.962 2.356,2.348s-0.968,1.444 -2.356,2.347a10.794,10.794 0 0 1 -5.688,1.804zm-0.019,-7.974a3.841,3.841 0 0 0 -3.8,3.87a3.841,3.841 0 0 0 3.8,3.87a3.841,3.841 0 0 0 3.8,-3.87a3.841,3.841 0 0 0 -3.8,-3.871l0,0.001zm0,6.45a2.56,2.56 0 0 1 -2.534,-2.58a2.56,2.56 0 0 1 2.534,-2.58a2.561,2.561 0 0 1 2.534,2.58a2.561,2.561 0 0 1 -2.534,2.579l0,0.001z" id="Exclusion_4"/>
</svg>